<?xml version="1.0" encoding="iso-8859-1"?>
<!-- Uploaded to: SVG Repo, www.svgrepo.com, Generator: SVG Repo Mixer Tools -->
<!DOCTYPE svg PUBLIC "-//W3C//DTD SVG 1.1//EN" "http://www.w3.org/Graphics/SVG/1.1/DTD/svg11.dtd">
<svg fill="#000000" version="1.1" id="Capa_1" xmlns="http://www.w3.org/2000/svg" xmlns:xlink="http://www.w3.org/1999/xlink" 
	 width="800px" height="800px" viewBox="0 0 20.51 20.51" xml:space="preserve"
	>
<g>
	<g>
		<path d="M13.427,7.299c0.581,0.049-0.222-0.475,0.093-0.988c-1.087-0.301-1.739-1.119-2.394-2.172
			C11.125,4.782,12.845,7.251,13.427,7.299z"/>
		<path d="M6.989,6.311c0.315,0.513-0.488,1.038,0.094,0.988c0.581-0.049,2.3-2.517,2.3-3.16C8.729,5.191,8.077,6.009,6.989,6.311z"
			/>
		<path d="M8.281,2.304L7.952,2.23c-0.638-0.144-1.16,0.273-1.16,0.927v0.025c0,0.654,0.521,1.07,1.16,0.928l0.329-0.074
			C8.918,3.894,9.44,3.504,9.44,3.171S8.918,2.447,8.281,2.304z"/>
		<path d="M15.953,2.867c0.01-0.942,0.015-2.002-0.521-2.542c-0.28-0.282-0.672-0.388-1.106-0.289l-0.578,0.13
			c-0.932,0.209-2.293,1.235-2.994,2.075c-0.1-0.037-0.205-0.055-0.312-0.055h-0.375c-0.107,0-0.212,0.019-0.312,0.055
			c-0.701-0.84-2.061-1.866-2.994-2.075l-0.577-0.13C5.744-0.062,5.356,0.043,5.076,0.325c-0.534,0.541-0.53,1.599-0.521,2.542
			L2.442,3.149v15.625l6.511,1.735V6.622c0.355-0.515,0.667-1.06,0.892-1.6c0.072,0.019,0.147,0.029,0.223,0.029h0.375
			c0.076,0,0.151-0.011,0.223-0.029c0.225,0.541,0.536,1.084,0.892,1.6V20.51l6.511-1.735V3.149L15.953,2.867z M15.431,3.213v0.043
			c0,1.147-0.915,1.879-2.033,1.627l-0.578-0.129c-0.484-0.108-0.925-0.301-1.274-0.53c0.988,1.061,2.126,1.416,3.668,1.843
			c-0.564,0.922,0.737,2.918-0.305,2.832c-0.915-0.076-3.408-2.503-3.995-4.755c-0.109,0.228-0.274,0.387-0.472,0.387h-0.375
			c-0.198,0-0.364-0.159-0.472-0.387c-0.586,2.252-3.08,4.68-3.996,4.755C4.557,8.985,5.858,6.99,5.294,6.067
			c1.542-0.427,2.681-0.782,3.669-1.843c-0.35,0.229-0.791,0.42-1.275,0.53L7.11,4.883C5.992,5.135,5.076,4.402,5.076,3.256V3.213
			c0-1.147-0.126-2.921,0.992-2.668l0.579,0.129c0.987,0.223,2.625,1.592,2.995,2.312c0.108-0.17,0.258-0.279,0.425-0.279h0.375
			c0.167,0,0.317,0.108,0.425,0.279c0.369-0.72,2.007-2.09,2.994-2.312l0.579-0.129C15.558,0.293,15.431,2.067,15.431,3.213z"/>
		<path d="M12.558,2.23l-0.329,0.074c-0.638,0.143-1.159,0.532-1.159,0.866c0,0.333,0.521,0.723,1.159,0.866l0.329,0.074
			c0.638,0.144,1.159-0.274,1.159-0.928V3.156C13.717,2.504,13.195,2.086,12.558,2.23z"/>
	</g>
</g>
</svg>