{
  "accessors": [
    {
      "bufferView": 2,
      "componentType": 5126,
      "count": 1410,
      "max": [
        1.109820008277893,
        2.277641773223877,
        1.1098203659057617
      ],
      "min": [
        -1.1098203659057617,
        -0.01725977659225464,
        -1.109820008277893
      ],
      "type": "VEC3"
    },
    {
      "bufferView": 2,
      "byteOffset": 16920,
      "componentType": 5126,
      "count": 1410,
      "max": [
        1.0,
        1.0,
        1.0
      ],
      "min": [
        -1.0,
        -1.0,
        -1.0
      ],
      "type": "VEC3"
    },
    {
      "bufferView": 1,
      "componentType": 5126,
      "count": 1410,
      "max": [
        0.872040867805481,
        0.9926861524581909
      ],
      "min": [
        0.125,
        0.0
      ],
      "type": "VEC2"
    },
    {
      "bufferView": 0,
      "componentType": 5125,
      "count": 2202,
      "type": "SCALAR"
    },
    {
      "bufferView": 2,
      "byteOffset": 33840,
      "componentType": 5126,
      "count": 10193,
      "max": [
        1.1564548015594482,
        2.853649616241455,
        1.1564550399780273
      ],
      "min": [
        -1.1564550399780273,
        -0.06389421224594116,
        -1.1564548015594482
      ],
      "type": "VEC3"
    },
    {
      "bufferView": 2,
      "byteOffset": 156156,
      "componentType": 5126,
      "count": 10193,
      "max": [
        1.0,
        1.0,
        1.0
      ],
      "min": [
        -1.0,
        -1.0,
        -1.0
      ],
      "type": "VEC3"
    },
    {
      "bufferView": 1,
      "byteOffset": 11280,
      "componentType": 5126,
      "count": 10193,
      "max": [
        0.8728539943695068,
        0.9108789563179016
      ],
      "min": [
        -0.08136478066444397,
        -0.07247769832611084
      ],
      "type": "VEC2"
    },
    {
      "bufferView": 0,
      "byteOffset": 8808,
      "componentType": 5125,
      "count": 15414,
      "type": "SCALAR"
    }
  ],
  "asset": {
    "extras": {
      "author": "Kyn (loner)",
      "license": "CC-BY-4.0 ()",
      "source": "",
      "title": "Gift box"
    },
    "generator": "Sketchfab-13.93.0",
    "version": "2.0"
  },
  "bufferViews": [
    {
      "buffer": 0,
      "byteLength": 70464,
      "name": "floatBufferViews",
      "target": 34963
    },
    {
      "buffer": 0,
      "byteLength": 92824,
      "byteOffset": 70464,
      "byteStride": 8,
      "name": "floatBufferViews",
      "target": 34962
    },
    {
      "buffer": 0,
      "byteLength": 278472,
      "byteOffset": 163288,
      "byteStride": 12,
      "name": "floatBufferViews",
      "target": 34962
    }
  ],
  "buffers": [
    {
      "byteLength": 441760,
      "uri": "scene.bin"
    }
  ],
  "materials": [
    {
      "doubleSided": true,
      "name": "material",
      "pbrMetallicRoughness": {
        "baseColorFactor": [
          0.030481,
          0.522532,
          0.742655,
          1.0
        ],
        "metallicFactor": 0.0,
        "roughnessFactor": 0.354545
      }
    },
    {
      "doubleSided": true,
      "name": "Ribbon",
      "pbrMetallicRoughness": {
        "baseColorFactor": [
          0.814041,
          0.231237,
          0.50715,
          1.0
        ],
        "metallicFactor": 0.221358,
        "roughnessFactor": 0.65931
      }
    }
  ],
  "meshes": [
    {
      "name": "Object_0",
      "primitives": [
        {
          "attributes": {
            "NORMAL": 1,
            "POSITION": 0,
            "TEXCOORD_0": 2
          },
          "indices": 3,
          "material": 0,
          "mode": 4
        }
      ]
    },
    {
      "name": "Object_1",
      "primitives": [
        {
          "attributes": {
            "NORMAL": 5,
            "POSITION": 4,
            "TEXCOORD_0": 6
          },
          "indices": 7,
          "material": 1,
          "mode": 4
        }
      ]
    }
  ],
  "nodes": [
    {
      "children": [
        1
      ],
      "matrix": [
        1.0,
        0.0,
        0.0,
        0.0,
        0.0,
        2.220446049250313e-16,
        -1.0,
        0.0,
        0.0,
        1.0,
        2.220446049250313e-16,
        0.0,
        0.0,
        0.0,
        0.0,
        1.0
      ],
      "name": "Sketchfab_model"
    },
    {
      "children": [
        2
      ],
      "name": "root"
    },
    {
      "children": [
        3
      ],
      "matrix": [
        1.0,
        0.0,
        0.0,
        0.0,
        0.0,
        2.220446049250313e-16,
        1.0,
        0.0,
        0.0,
        -1.0,
        2.220446049250313e-16,
        0.0,
        0.0,
        0.0,
        0.0,
        1.0
      ],
      "name": "GLTF_SceneRootNode"
    },
    {
      "children": [
        4,
        5
      ],
      "name": "Gift box_0"
    },
    {
      "mesh": 0,
      "name": "Object_4"
    },
    {
      "mesh": 1,
      "name": "Object_5"
    }
  ],
  "scene": 0,
  "scenes": [
    {
      "name": "Sketchfab_Scene",
      "nodes": [
        0
      ]
    }
  ]
}
